<?xml version="1.0" encoding="UTF-8"?>
<svg id="Capa_2" data-name="Capa 2" xmlns="http://www.w3.org/2000/svg" viewBox="0 0 421.69 197.361">
  <defs>
    <style>
      .cls-1 {
        fill: #0047ba;
      }
    </style>
  </defs>
  <g id="Layer_1" data-name="Layer 1">
    <g>
      <g>
        <polygon class="cls-1" points="161.521 67.39 229.974 67.39 229.974 85.147 181.348 85.147 181.348 103.556 224.131 103.556 224.131 121.316 181.348 121.316 181.348 140.37 230.61 140.37 230.61 158.12 161.521 158.12 161.521 67.39"/>
        <polygon class="cls-1" points="319.327 139.792 284.564 139.792 284.564 94.357 264.456 74.254 264.456 158.089 319.327 158.089 319.327 139.792"/>
        <polygon class="cls-1" points="106.787 158.089 126.874 158.089 126.874 73.083 106.787 93.169 106.787 158.089"/>
        <path class="cls-1" d="M375.533,67.245c-25.493,0-46.149,20.657-46.149,46.15s20.656,46.156,46.149,46.156,46.157-20.67,46.157-46.156-20.667-46.15-46.157-46.15ZM375.533,140.439c-14.934,0-27.047-12.109-27.047-27.044s12.113-27.043,27.047-27.043,27.046,12.104,27.046,27.043-12.111,27.044-27.046,27.044Z"/>
        <g>
          <path class="cls-1" d="M84.211,113.425l.01-.063c0-.013-.01-.029-.01-.056v.119Z"/>
          <path class="cls-1" d="M66.342,131.373c-4.957,5.546-12.135,9.052-20.159,9.052-14.943,0-27.062-12.114-27.062-27.063s12.119-27.058,27.062-27.058c8.024,0,15.211,3.512,20.167,9.059l13.521-13.521c-8.426-8.998-20.379-14.654-33.689-14.654C20.679,67.188,0,87.862,0,113.362s20.679,46.19,46.182,46.19c13.302,0,25.253-5.661,33.685-14.656l-13.525-13.523Z"/>
        </g>
        <polygon class="cls-1" points="195.668 0 161.484 34.186 229.851 34.187 195.668 0"/>
      </g>
      <path class="cls-1" d="M126.651,189.343h7.626c.545,0,.972.386.972.934s-.427.931-.972.931h-8.603c-.54,0-.967-.419-.967-.967v-11.262c0-.543.427-.967.967-.967.547,0,.976.386.976.931v10.399Z"/>
      <path class="cls-1" d="M151.737,189.343c.54,0,.969.386.969.934s-.429.931-.969.931h-9.321c-.54,0-.969-.419-.969-.967v-11.262c0-.543.429-.967.969-.967h9.321c.54,0,.969.386.969.931s-.429.927-.969.927h-8.349v3.652h6.413c.54,0,.965.391.965.934,0,.547-.424.934-.965.934h-6.413v3.953h8.349Z"/>
      <path class="cls-1" d="M117.073,189.343c.543,0,.981.386.981.934s-.438.931-.981.931h-9.314c-.543,0-.972-.419-.972-1.692v-17.296c0-.303.429-.711.972-.711h9.314c.543,0,.981.384.981.92,0,.559-.438.941-.981.941h-8.345v5.816h6.404c.55,0,.969.389.969.931s-.419.929-.969.929h-6.404v8.297h8.345Z"/>
      <path class="cls-1" d="M162.254,187.988l9.868-9.551c.379-.386.571-.505.962-.505.543,0,.969.429.969.969,0,.273-.116.505-.31.702l-11.489,11.184c-.389.384-.583.5-.969.5-.55,0-.969-.424-.969-.972v-11.414c0-.54.419-.969.969-.969.545,0,.969.429.969.969v9.086Z"/>
      <path class="cls-1" d="M177.278,190.788c-.384.384-.578.498-.967.498-.543,0-.972-.424-.972-.969,0-.27.119-.507.313-.702l11.494-11.179c.386-.386.578-.507.969-.507.54,0,.962.431.962.974v11.414c0,.545-.422.969-.962.969-.552,0-.969-.424-.969-.969v-3.076h-6.216l-3.652,3.548ZM187.146,181.23l-4.28,4.159h4.28v-4.159Z"/>
      <path class="cls-1" d="M212.122,173.413h-4.659c-.543,0-.974-.389-.974-.936,0-.543.431-.934.974-.934h11.257c.543,0,.974.391.974.934,0,.547-.431.936-.974.936h-4.664v22.981c0,.543-.424.967-.969.967s-.965-.424-.965-.967v-22.981Z"/>
      <path class="cls-1" d="M223.388,178.792c0-.543.419-.974.967-.974s.981.431.981.974v5.7c0,2.685,2.169,4.851,4.844,4.851s4.856-2.166,4.856-4.851v-5.7c0-.543.429-.974.965-.974.547,0,.972.431.972.974v5.7c0,3.768-3.026,6.795-6.792,6.795s-6.792-3.026-6.792-6.795v-5.7Z"/>
      <path class="cls-1" d="M263.032,178.896c0-.55.429-.974.972-.974.536,0,.969.424.969.974v11.404c0,.543-.434.972-.969.972-.398,0-.581-.109-.972-.495l-11.494-11.188c-.192-.192-.31-.424-.31-.692,0-.55.431-.974.972-.974.382,0,.585.111.967.502l9.866,9.548v-9.077Z"/>
      <path class="cls-1" d="M277.791,190.331c0,.54-.429.974-.972.974s-.976-.434-.976-.974v-11.411c0-.547.436-.979.976-.979s.972.431.972.979v11.411Z"/>
      <path class="cls-1" d="M293.812,178.024c3.768,0,6.797,2.83,6.797,6.6s-3.029,6.598-6.797,6.598h-4.271c-.543,0-.967-.424-.967-.967v-11.264c0-.54.424-.967.967-.967h4.271ZM290.518,179.889v9.482h3.294c2.683,0,4.851-2.071,4.851-4.747s-2.169-4.735-4.851-4.735h-3.294Z"/>
      <path class="cls-1" d="M307.523,190.776c-.386.379-.576.505-.972.505-.543,0-.967-.436-.967-.981,0-.265.114-.5.306-.697l11.494-11.179c.382-.384.581-.502.972-.502.543,0,.972.424.972.974v11.404c0,.545-.429.981-.972.981s-.972-.436-.972-.981v-3.064h-6.214l-3.647,3.541ZM317.384,181.218l-4.275,4.157h4.275v-4.157Z"/>
    </g>
  </g>
</svg>